<svg xmlns="http://www.w3.org/2000/svg" width="31" height="31" fill="none"><path fill="#fff" d="M27.533.97H3.963A3.215 3.215 0 00.749 4.186v23.57a3.215 3.215 0 003.214 3.215h23.57a3.215 3.215 0 003.214-3.214V4.185A3.215 3.215 0 0027.534.97M24.26 11.605c.013.188.013.382.013.57 0 5.805-4.42 12.495-12.495 12.495-2.49 0-4.801-.724-6.743-1.97.355.041.697.054 1.058.054a8.8 8.8 0 005.45-1.875 4.4 4.4 0 01-4.104-3.046c.676.1 1.286.1 1.982-.08a4.39 4.39 0 01-3.515-4.313v-.053a4.4 4.4 0 001.982.555 4.38 4.38 0 01-1.956-3.656c0-.817.215-1.567.596-2.216a12.47 12.47 0 009.054 4.593c-.623-2.98 1.607-5.397 4.285-5.397 1.266 0 2.404.53 3.208 1.386a8.6 8.6 0 002.785-1.058 4.38 4.38 0 01-1.928 2.418 8.7 8.7 0 002.53-.683 9.2 9.2 0 01-2.202 2.276"/></svg>