<svg width="31" height="31" fill="none" xmlns="http://www.w3.org/2000/svg"><path d="M.25 3.12c0-1.187.986-2.15 2.203-2.15h25.593c1.217 0 2.203.963 2.203 2.15v25.7c0 1.187-.986 2.149-2.203 2.149H2.453C1.236 30.97.25 30.008.25 28.82V3.119zm9.268 22.964V12.537H5.016v13.547h4.502zm-2.25-15.397c1.57 0 2.546-1.04 2.546-2.34-.028-1.33-.975-2.34-2.516-2.34S4.75 7.019 4.75 8.347c0 1.3.977 2.34 2.488 2.34h.03zm9.202 15.397v-7.566c0-.405.03-.81.15-1.099.324-.808 1.065-1.646 2.31-1.646 1.63 0 2.28 1.242 2.28 3.064v7.247h4.502v-7.77c0-4.162-2.22-6.097-5.183-6.097-2.388 0-3.459 1.312-4.059 2.236v.047h-.03l.03-.047v-1.916h-4.5c.056 1.271 0 13.547 0 13.547h4.5z" fill="#fff"/></svg>