<svg xmlns="http://www.w3.org/2000/svg" width="31" height="31" fill="none"><path fill="#fff" d="M16.795.973q1.642-.007 3.283.033l.291.01c.336.012.668.027 1.068.045 1.596.075 2.685.327 3.64.698.99.38 1.824.896 2.658 1.73a7.4 7.4 0 011.73 2.657c.37.955.622 2.046.697 3.642.018.399.033.732.045 1.068l.01.29q.039 1.642.034 3.283l.001 1.119v1.964q.005 1.643-.034 3.284l-.01.29c-.011.337-.026.668-.044 1.069-.075 1.596-.33 2.685-.7 3.64a7.3 7.3 0 01-1.729 2.658 7.4 7.4 0 01-2.657 1.73c-.956.37-2.045.622-3.64.697-.401.018-.733.033-1.069.045l-.29.009q-1.643.04-3.284.034l-1.12.002h-1.963q-1.641.005-3.283-.034l-.291-.01a91 91 0 01-1.068-.044c-1.596-.076-2.685-.33-3.642-.7a7.3 7.3 0 01-2.656-1.729 7.36 7.36 0 01-1.731-2.658c-.37-.955-.623-2.044-.698-3.64l-.045-1.068-.007-.291q-.042-1.642-.038-3.283v-3.084q-.006-1.641.033-3.282l.01-.291c.013-.336.028-.67.046-1.068.075-1.598.327-2.685.697-3.642A7.3 7.3 0 012.773 3.49a7.35 7.35 0 012.655-1.732c.957-.371 2.045-.623 3.642-.698l1.068-.045.291-.007Q12.07.967 13.711.97zm-1.542 7.5a7.5 7.5 0 100 14.997 7.5 7.5 0 000-14.998m0 3a4.5 4.5 0 11.001 8.997 4.5 4.5 0 010-9zm7.875-5.25a1.875 1.875 0 000 3.746 1.875 1.875 0 100-3.75z"/></svg>