<svg width="31" height="31" fill="none" xmlns="http://www.w3.org/2000/svg"><path d="M16.795.973c1.094-.005 2.189.006 3.283.033l.291.01c.336.012.668.027 1.068.045 1.596.075 2.685.327 3.64.698.99.38 1.824.896 2.658 1.73a7.362 7.362 0 011.73 2.657c.37.955.622 2.046.697 3.642.018.399.033.732.045 1.068l.01.29c.026 1.095.037 2.188.034 3.283l.001 1.119v1.964c.004 1.095-.008 2.19-.034 3.284l-.01.29c-.011.337-.026.668-.044 1.069-.075 1.596-.33 2.685-.7 3.64a7.326 7.326 0 01-1.729 2.658 7.373 7.373 0 01-2.657 1.73c-.956.37-2.045.622-3.64.697-.401.018-.733.033-1.069.045l-.29.009c-1.095.027-2.19.038-3.284.034l-1.12.002h-1.963c-1.094.004-2.189-.008-3.283-.034l-.291-.01a90.575 90.575 0 01-1.068-.044c-1.596-.076-2.685-.33-3.642-.7a7.335 7.335 0 01-2.656-1.729 7.355 7.355 0 01-1.731-2.658c-.37-.955-.623-2.044-.698-3.64l-.045-1.068-.007-.291c-.028-1.094-.04-2.189-.038-3.284V14.43c-.003-1.096.007-2.19.033-3.283l.01-.291c.013-.336.028-.67.046-1.068.075-1.598.327-2.685.697-3.642A7.32 7.32 0 012.773 3.49a7.345 7.345 0 012.655-1.732c.957-.371 2.045-.623 3.642-.698l1.068-.045.291-.007C11.523.98 12.617.969 13.711.97l3.084.002zm-1.542 7.5a7.5 7.5 0 100 14.997 7.5 7.5 0 000-14.998zm0 3a4.5 4.5 0 11.001 8.997 4.5 4.5 0 010-9l-.001.002zm7.875-5.25a1.875 1.875 0 000 3.746 1.875 1.875 0 100-3.75v.003z" fill="#fff"/></svg>