<svg xmlns="http://www.w3.org/2000/svg" width="62" height="51" fill="none"><g fill="#fff" clip-path="url(#a)"><path d="M53.158 50.859v.08c-.381.02-.753.05-1.135.05h-9.796c-.271 0-.392-.11-.482-.33-.723-1.682-1.457-3.355-2.19-5.036-.844-1.943-1.688-3.895-2.522-5.847-.14-.32-.281-.641-.432-.952a.67.67 0 00-.251-.25L28 33.408c-1.366-.84-2.722-1.702-4.078-2.553-.03-.02-.08-.03-.221-.07.633.781 1.205 1.492 1.818 2.253-4.43 1.852-8.811 3.694-13.232 5.546-.12-.34-.24-.65-.341-.97l-1.085-3.425c-.463-1.482-.925-2.973-1.387-4.455a87 87 0 00-.753-2.293c-.04-.13-.302-.39-.674-.5-.391-.13-.693-.23-.994-.34-1.477-.552-2.944-1.102-4.421-1.643-.231-.09-.321-.21-.311-.46.02-.47.01-.942 0-1.412 0-.21.08-.28.29-.28 2.945 0 5.888 0 8.832.01.11 0 3.386 5.777 3.527 6.017.14.24.17.33.17.33s-.984 1.312-1.366 1.872c-.06.08-.1.18-.1.32.502-.29 1.004-.58 1.507-.88 2.35-1.382 4.712-2.754 7.063-4.135 1.688-.991 3.366-1.982 5.053-2.964.854-.49.543-.53 1.276.09.965.821 1.91 1.662 2.874 2.483.17.15 2.05 1.802 2.23 1.963 2.391 2.102 4.783 4.215 7.174 6.317.422.37.834.771 1.286 1.111.382.28.422.691.532 1.082.201.74.392 1.471.573 2.212.02.09.16.571.241.811.251.801.462 1.622.683 2.423.201.73.392 1.472.593 2.213.13.5.301 1 .402 1.511.08.38.291.561.643.681 1.256.42 2.502.861 3.747 1.292 1.327.46 2.643.9 3.97 1.361.08.03-.453 1.873-.363 1.893z"/><path d="M37.345 20.714c.934-.37 1.868-.73 2.803-1.101.723-.28 1.436-.57 2.16-.851.12-.05.26-.05.392-.05 2.903 0 5.797 0 8.7.01.09 0 .181.02.372.04-.683.43-1.276.82-1.879 1.201l-6.159 3.915a1922 1922 0 00-4.752 3.003c-.16.1-.251.1-.392-.03a298.71 298.71 0 00-2.793-2.322l-5.023-4.195c-1.96-1.632-3.919-3.274-5.878-4.906-.07-.06-.15-.12-.22-.17-.03.01-.061.03-.091.04.271.82.542 1.652.824 2.523-.241.09-.462.18-.694.26-1.627.56-3.265 1.111-4.892 1.682-.985.34-1.96.7-2.934 1.031-.12.04-.312.05-.392-.01-.693-.56-1.376-1.141-2.09-1.732.623-.44 1.226-.86 1.829-1.281.904-.621 1.818-1.232 2.723-1.863 1.677-1.15 3.355-2.312 5.033-3.474 1.346-.93 2.703-1.852 4.039-2.793.251-.18.412-.19.673.03 1.708 1.442 3.436 2.864 5.154 4.295 1.688 1.402 3.366 2.813 5.054 4.215.21.17.17.27.02.44-.553.672-1.095 1.352-1.638 2.033.02.02.04.04.06.05zM33.537 5.907c-.372.02-.352-.18-.322-.45.161-1.372.653-2.604 1.588-3.625C35.848.69 37.143.08 38.7.01c2.03-.09 3.667.71 4.943 2.242.322.39.563.851.804 1.292.11.2.231.28.462.28 1.316-.01 2.633 0 3.959 0 .401 0 .412.03.341.41-.2 1.202-.994 1.853-2.11 2.093-.803.17-1.647.21-2.481.24-.985.04-1.98 0-2.964 0-.07 0-.15.01-.241.08.864.311 1.728.631 2.632.962-.17 1.562-.884 2.813-2.2 3.654-1.819 1.161-3.768 1.252-5.677.21-1.778-.97-2.964-2.923-2.652-5.556zM8.39 26.32c-.141.08-.222.13-.312.18l-.231-.39s.05-.05.08-.07c.13.08.261.16.462.27z"/><path d="M42.318 17.47s1.869-9.18 9.213-9.18S62 17.47 62 17.47zm9.404-9.78c.81 0 1.467-.655 1.467-1.463 0-.807-.657-1.461-1.467-1.461s-1.467.654-1.467 1.461c0 .808.657 1.462 1.467 1.462m-30.985.601H3.677v.7h17.06zm-3.426 6.567H0v.66h17.311zm-1.336-3.284H4.742v.7h11.233zm21.028 35.011h-10.81v.66h10.81zm-3.255-2.973H22.515v.7h11.233z"/></g><defs><clipPath id="a"><path fill="#fff" d="M0 0h62v51H0z"/></clipPath></defs></svg>