<svg width="62" height="51" fill="none" xmlns="http://www.w3.org/2000/svg"><g clip-path="url(#clip0_312_2133)" fill="#fff"><path d="M52.91 50.8v.08c-.38.02-.75.05-1.13.05h-9.75c-.27 0-.39-.11-.48-.33-.72-1.68-1.45-3.35-2.18-5.03-.84-1.94-1.68-3.89-2.51-5.84-.14-.32-.28-.64-.43-.95a.667.667 0 00-.25-.25l-8.31-5.16c-1.36-.84-2.71-1.7-4.06-2.55-.03-.02-.08-.03-.22-.07.63.78 1.2 1.49 1.81 2.25-4.41 1.85-8.77 3.69-13.17 5.54-.12-.34-.24-.65-.34-.97l-1.08-3.42-1.38-4.45c-.24-.77-.49-1.53-.75-2.29-.04-.13-.3-.39-.67-.5-.39-.13-.69-.23-.99-.34-1.47-.55-2.93-1.1-4.4-1.64-.23-.09-.32-.21-.31-.46.02-.47.01-.94 0-1.41 0-.21.08-.28.29-.28 2.93 0 5.86 0 8.79.01.11 0 3.37 5.77 3.51 6.01.14.24.17.33.17.33s-.98 1.31-1.36 1.87c-.06.08-.1.18-.1.32.5-.29 1-.58 1.5-.88 2.34-1.38 4.69-2.75 7.03-4.13 1.68-.99 3.35-1.98 5.03-2.96.85-.49.54-.53 1.27.09.96.82 1.9 1.66 2.86 2.48l2.22 1.96c2.38 2.1 4.76 4.21 7.14 6.31.42.37.83.77 1.28 1.11.38.28.42.69.53 1.08.2.74.39 1.47.57 2.21.02.09.16.57.24.81.25.8.46 1.62.68 2.42.2.73.39 1.47.59 2.21.13.5.3 1 .4 1.51.08.38.29.56.64.68 1.25.42 2.49.86 3.73 1.29 1.32.46 2.63.9 3.95 1.36.08.03-.45 1.87-.36 1.89v.04z"/><path d="M37.17 20.69c.93-.37 1.86-.73 2.79-1.1.72-.28 1.43-.57 2.15-.85.12-.05.26-.05.39-.05 2.89 0 5.77 0 8.66.01.09 0 .18.02.37.04-.68.43-1.27.82-1.87 1.2-2.04 1.3-4.09 2.61-6.13 3.91-1.58 1-3.16 2-4.73 3-.16.1-.25.1-.39-.03-.92-.78-1.85-1.55-2.78-2.32l-5-4.19c-1.95-1.63-3.9-3.27-5.85-4.9-.07-.06-.15-.12-.22-.17-.03.01-.06.03-.09.04.27.82.54 1.65.82 2.52-.24.09-.46.18-.69.26-1.62.56-3.25 1.11-4.87 1.68-.98.34-1.95.7-2.92 1.03-.12.04-.31.05-.39-.01-.69-.56-1.37-1.14-2.08-1.73.62-.44 1.22-.86 1.82-1.28.9-.62 1.81-1.23 2.71-1.86 1.67-1.15 3.34-2.31 5.01-3.47 1.34-.93 2.69-1.85 4.02-2.79.25-.18.41-.19.67.03 1.7 1.44 3.42 2.86 5.13 4.29 1.68 1.4 3.35 2.81 5.03 4.21.21.17.17.27.02.44-.55.67-1.09 1.35-1.63 2.03.02.02.04.04.06.05l-.01.01zM33.38 5.9c-.37.02-.35-.18-.32-.45.16-1.37.65-2.6 1.58-3.62C35.68.69 36.97.08 38.52.01c2.02-.09 3.65.71 4.92 2.24.32.39.56.85.8 1.29.11.2.23.28.46.28 1.31-.01 2.62 0 3.94 0 .4 0 .41.03.34.41-.2 1.2-.99 1.85-2.1 2.09-.8.17-1.64.21-2.47.24-.98.04-1.97 0-2.95 0-.07 0-.15.01-.24.08.86.31 1.72.63 2.62.96-.17 1.56-.88 2.81-2.19 3.65-1.81 1.16-3.75 1.25-5.65.21-1.77-.97-2.95-2.92-2.64-5.55l.02-.01zM8.35 26.29c-.14.08-.22.13-.31.18l-.23-.39s.05-.05.08-.07c.13.08.26.16.46.27v.01z"/><path d="M42.12 17.45s1.86-9.17 9.17-9.17 10.42 9.17 10.42 9.17H42.12zm9.36-9.77a1.46 1.46 0 100-2.92 1.46 1.46 0 000 2.92zm-30.84.6H3.66v.7h16.98v-.7zm-3.41 6.56H0v.66h17.23v-.66zm-1.33-3.28H4.72v.7H15.9v-.7zm20.93 34.97H26.07v.66h10.76v-.66zm-3.24-2.97H22.41v.7h11.18v-.7z"/></g><defs><clipPath id="clip0_312_2133"><path fill="#fff" d="M0 0h61.71v50.94H0z"/></clipPath></defs></svg>